<?xml version="1.0" encoding="utf-8"?>
<!-- Generator: Adobe Illustrator 26.0.2, SVG Export Plug-In . SVG Version: 6.00 Build 0)  -->
<svg version="1.1" id="Layer_1" xmlns="http://www.w3.org/2000/svg" xmlns:xlink="http://www.w3.org/1999/xlink" x="0px" y="0px"
	 viewBox="0 0 2358.5 1490.5" style="enable-background:new 0 0 2358.5 1490.5;" xml:space="preserve">
<style type="text/css">
	.st0{clip-path:url(#SVGID_00000024679756940330617620000010992192520462734984_);}
	.st1{fill:none;}
	.st2{opacity:7.000000e-02;fill:#283618;enable-background:new    ;}
	.st3{opacity:7.000000e-02;fill:#BC6C25;enable-background:new    ;}
	.st4{opacity:0.2;}
	.st5{fill:#270C00;}
	.st6{font-family:'Prata-Regular';}
	.st7{font-size:18.1795px;}
	.st8{fill:none;stroke:#BC6C25;stroke-width:2;stroke-miterlimit:10;}
</style>
<g>
	<defs>
		<rect id="SVGID_1_" x="469" y="514.7" width="1440" height="560"/>
	</defs>
	<clipPath id="SVGID_00000135673924328840144650000000946689846468485549_">
		<use xlink:href="#SVGID_1_"  style="overflow:visible;"/>
	</clipPath>
	<g style="clip-path:url(#SVGID_00000135673924328840144650000000946689846468485549_);">
		<rect x="469" y="514.7" class="st1" width="1440" height="560"/>
		<path class="st2" d="M469,1170.8c124-8,153.9-188,251.4-264.9c83.9-66.1,214.8-62.7,275.5-150.6c63.4-91.9,79.9-215.7,52.3-323.9
			c-26.6-104.4-116-177.1-197.8-247.2c-72-61.8-155.1-103.3-245.3-133C512.3,20.7,414.2-18.8,320.9,10
			c-93,28.8-152.8,115.5-210.2,194.1C57.1,277.4,10.3,357.1,1.3,447.5c-8.7,88.2,27.5,171,60.1,253.4
			c34.3,86.8,73.3,168.5,134.4,239C275.6,1031.9,347.6,1178.7,469,1170.8"/>
		<path class="st3" d="M1909.1,1460.7c87.6,10.8,177.1,50,258.8,16.7c86.1-35.2,166.1-108.3,187.5-198.8c21-89-69.6-165.7-80-256.5
			c-10.9-95.2,63.8-196.5,18.7-281c-45.5-85.1-151.7-118.7-245.1-142.8c-91.4-23.6-190.2-28.2-277.5,7.9
			c-83.3,34.4-132.4,115.3-189.6,185c-55.6,67.8-125.4,130-139.8,216.4c-14.4,87.1,17,176.2,62.3,252
			c42.5,70.9,109.7,122.2,183.7,159C1756.6,1452.6,1833.1,1451.4,1909.1,1460.7"/>
	</g>
</g>
<g class="st4">
	<text transform="matrix(1 0 0 1 517.5322 620.5947)" class="st5 st6 st7">Solutions</text>
	<text transform="matrix(1 0 0 1 504.2568 603.3804)" class="st5 st6 st7">Wealth</text>
	<line class="st8" x1="505.1" y1="606.2" x2="517.1" y2="606.2"/>
	<line class="st8" x1="603.6" y1="621" x2="603.6" y2="588.8"/>
</g>
</svg>
