<svg id="Layer_1" data-name="Layer 1" xmlns="http://www.w3.org/2000/svg" xmlns:xlink="http://www.w3.org/1999/xlink" viewBox="0 0 2358.53 1490.54"><defs><style>.cls-1{fill:none;}.cls-2{clip-path:url(#clip-path);}.cls-3{fill:#283618;}.cls-3,.cls-4{opacity:0.07;}.cls-4{fill:#bc6c25;}</style><clipPath id="clip-path" transform="translate(469.05 514.71)"><rect class="cls-1" width="1440" height="560"/></clipPath></defs><g class="cls-2"><rect class="cls-1" x="469.05" y="514.71" width="1440" height="560"/><path class="cls-3" d="M0,656.12c124-8,153.85-188,251.42-264.91,83.86-66.14,214.75-62.72,275.46-150.59,63.44-91.85,79.88-215.73,52.32-323.9-26.59-104.38-116.05-177.06-197.8-247.2-72-61.82-155.13-103.33-245.31-133C43.25-494-54.82-533.54-148.18-504.67c-93,28.76-152.81,115.49-210.24,194.1-53.53,73.28-100.36,153-109.31,243.32-8.74,88.18,27.53,171,60.08,253.42,34.28,86.76,73.3,168.5,134.43,239,79.76,92,151.75,238.83,273.22,231" transform="translate(469.05 514.71)"/><path class="cls-4" d="M1440,946c87.57,10.75,177.1,50,258.79,16.66,86.09-35.15,166.15-108.35,187.54-198.85,21-89-69.6-165.68-80-256.51-10.86-95.18,63.82-196.46,18.66-280.95-45.49-85.13-151.68-118.68-245.14-142.81-91.44-23.6-190.18-28.16-277.47,7.89-83.32,34.4-132.45,115.34-189.63,185C1057.19,344.22,987.31,406.39,973,492.86,958.59,580,990,669.05,1035.32,744.81c42.47,70.92,109.72,122.17,183.74,159,68.53,34.07,145,32.91,220.94,42.24" transform="translate(469.05 514.71)"/></g></svg>